<?xml version="1.0" encoding="utf-8"?>
<!-- Generator: Adobe Illustrator 23.0.1, SVG Export Plug-In . SVG Version: 6.00 Build 0)  -->
<svg version="1.1" id="Layer_1" xmlns="http://www.w3.org/2000/svg" xmlns:xlink="http://www.w3.org/1999/xlink" x="0px" y="0px"
	 viewBox="0 0 12 12" style="enable-background:new 0 0 12 12;" xml:space="preserve">
<style type="text/css">
	.st0{fill:#999999;}
</style>
<title>clear</title>
<path class="st0" d="M6,0C2.7,0,0,2.7,0,6s2.7,6,6,6s6-2.7,6-6S9.3,0,6,0z M8.7,7.9C8.7,7.9,8.7,7.9,8.7,7.9c0.2,0.2,0.2,0.4,0,0.6
	L8.5,8.7c0,0,0,0,0,0c-0.2,0.1-0.4,0.1-0.6,0L6,6.8L4.1,8.7c0,0,0,0,0,0c-0.2,0.1-0.4,0.1-0.6,0L3.3,8.5c0,0,0,0,0,0
	c-0.1-0.2-0.1-0.4,0-0.6L5.2,6L3.3,4.1c0,0,0,0,0,0c-0.1-0.2-0.1-0.4,0-0.6l0.2-0.2c0,0,0,0,0,0c0.2-0.1,0.4-0.1,0.6,0L6,5.2
	l1.9-1.9c0,0,0,0,0,0c0.2-0.1,0.4-0.1,0.6,0l0.2,0.2c0,0,0,0,0,0c0.1,0.2,0.1,0.4,0,0.6L6.8,6L8.7,7.9z"/>
</svg>
