<?xml version="1.0" encoding="utf-8"?>
<!-- Generator: Adobe Illustrator 23.0.1, SVG Export Plug-In . SVG Version: 6.00 Build 0)  -->
<svg version="1.1" id="Layer_1" xmlns="http://www.w3.org/2000/svg" xmlns:xlink="http://www.w3.org/1999/xlink" x="0px" y="0px"
	 viewBox="0 0 183 60" style="enable-background:new 0 0 183 60;" xml:space="preserve">
<style type="text/css">
	.st0{fill:#FFFFFF;}
	.st1{fill:#66CC33;}
	.st2{fill:#93959B;}
	.st3{fill:#0083D7;}
</style>
<path class="st0" d="M54.5,30.2c0,13.4-10.8,24.2-24.2,24.2S6.1,43.6,6.1,30.2S16.9,6,30.3,6S54.5,16.8,54.5,30.2z"/>
<g>
	<g>
		<path class="st1" d="M80.5,17.6V39h9.3v3.5H76.6V17.6H80.5z"/>
		<path class="st1" d="M98.7,17.6v24.9H95V17.6H98.7z"/>
		<path class="st1" d="M106.4,42.6V15.9l18.1,19V17.6h3.8v26.5l-18.1-19v17.4H106.4z"/>
		<path class="st1" d="M139.7,27.6l9.7-9.9h5l-11.3,11.2l11.4,13.6h-5.1l-8.9-11l-0.8,0.8v10.3h-3.8V17.6h3.8L139.7,27.6L139.7,27.6
			z"/>
		<path class="st1" d="M156.8,30c0-3.5,1.3-6.5,3.9-9c2.5-2.5,5.7-3.8,9.2-3.8c3.5,0,6.6,1.3,9.1,3.9s3.9,5.6,3.9,9.1
			s-1.3,6.6-3.9,9.1s-5.7,3.8-9.3,3.8c-3.2,0-6.1-1.1-8.6-3.3C158.2,37.2,156.8,34,156.8,30z M160.5,30c0,2.7,0.9,5,2.7,6.8
			c1.8,1.7,4,2.6,6.4,2.6c2.6,0,4.9-0.9,6.6-2.7c1.8-1.8,2.7-4.1,2.7-6.7s-0.9-4.9-2.6-6.7c-1.7-1.8-4-2.7-6.6-2.7s-4.8,0.9-6.6,2.7
			C161.5,25.2,160.5,27.4,160.5,30z"/>
	</g>
</g>
<path class="st2" d="M30,0C13.5,0,0,13.5,0,30s13.5,30,30,30s30-13.5,30-30S46.6,0,30,0z M54.5,30.2c0,13.4-10.8,24.2-24.2,24.2
	S6.1,43.6,6.1,30.2S16.9,6,30.3,6S54.5,16.8,54.5,30.2z"/>
<g>
	<polygon class="st1" points="35.1,37.4 28,30.2 28.7,29.4 24.9,25.6 20.8,29.8 35.1,44.1 49.1,30.2 34.8,15.9 30.6,20.1 34.3,23.7 
		35.1,23.1 42.3,30.2 	"/>
	<polygon class="st3" points="24.9,22.6 32,29.8 31.3,30.6 35.1,34.4 39.2,30.2 24.9,15.9 10.9,29.8 25.2,44.1 29.4,39.9 25.6,36.3 
		24.9,36.9 17.7,29.8 	"/>
</g>
</svg>
